<svg xmlns="http://www.w3.org/2000/svg" xmlns:xlink="http://www.w3.org/1999/xlink" x="0px" y="0px" xml:space="preserve" viewBox="0 0 480 480">
  <g>
      <g id="outline">
      <path d="M450,88H312V56c0-30.9-25.1-56-56-56H64C33.1,0,8,25.1,8,56v8c0,4.4,3.6,8,8,8h40v16H30c-16.6,0-30,13.4-30,30v252
          c0,16.6,13.4,30,30,30h161.2c-2,9.6-7.4,18.1-15.2,24l-10.7,8H160c-8.8,0-16,7.2-16,16v24c0,4.4,3.6,8,8,8h176c4.4,0,8-3.6,8-8
          v-24c0-8.8-7.2-16-16-16h-5.3l-10.7-8c-7.8-5.9-13.2-14.4-15.2-24H450c16.6,0,30-13.4,30-30V118C480,101.4,466.6,88,450,88z
          M450,104c7.7,0,14,6.3,14,14v218h-32V120c0-4.4-3.6-8-8-8H312v-8H450z M104,152h48v32h-48V152z M232,104h32v32h-32V104z M216,136
          h-48v-32h48V136z M264,88h-32V56h32V88z M216,88h-48V56h48V88z M152,88h-48V56h48V88z M152,104v32h-48v-32H152z M168,152h48v32
          h-48V152z M232,152h32v32h-32V152z M280,128h136v208H280V128z M296,56v56h-16V48c0-4.4-3.6-8-8-8H96c-4.4,0-8,3.6-8,8v144
          c0,4.4,3.6,8,8,8h168v136h-24v-72c0,0,0,0,0,0c0-1-0.2-2-0.6-2.9l-16-40c-1.6-4.1-6.3-6.1-10.4-4.5c-2,0.8-3.6,2.4-4.5,4.5l-16,40
          c-0.4,0.9-0.6,1.9-0.6,2.9c0,0,0,0,0,0v72h-42.8c31-24.9,35.8-70.2,10.9-101.2c-21.2-26.3-57.8-34.3-88.1-19.3V16h184
          C278.1,16,296,33.9,296,56z M208,272h16v64h-16V272z M211.8,256l4.2-10.5l4.2,10.5H211.8z M48,280c0-30.9,25.1-56,56-56
          s56,25.1,56,56s-25.1,56-56,56C73.1,336,48,310.9,48,280z M24,56c0-19,13.4-35.4,32-39.2V56H24z M30,104h26v122.4
          c-29.6,26.4-32.2,71.9-5.7,101.5c2.6,2.9,5.5,5.7,8.5,8.1H16V118C16,110.3,22.3,104,30,104z M320,464H160l0-16h160V464z
          M288.8,432h-97.6c8.7-8.6,14.4-19.9,16.2-32h65.2C274.4,412.1,280.1,423.4,288.8,432z M450,384H30c-7.7,0-14-6.3-14-14v-18h448
          v18C464,377.7,457.7,384,450,384z"></path>
      <path d="M113.3,275.1l-14.7-3.7c-1.8-0.5-3-2.3-2.5-4.2c0.2-1,0.9-1.8,1.8-2.2c3.8-1.9,8.4-1.9,12.2,0l6.3,3.2
          c3.9,2,8.8,0.4,10.8-3.5c2-3.9,0.4-8.8-3.5-10.8c0,0-0.1,0-0.1-0.1l-6.3-3.2c-1.7-0.8-3.4-1.5-5.3-2V237H96v11.7
          c-1.8,0.5-3.6,1.2-5.3,2c-9.6,4.8-13.5,16.5-8.7,26.1c2.5,5.1,7.2,8.8,12.7,10.2l14.7,3.7c1.8,0.5,3,2.3,2.5,4.2
          c-0.2,1-0.9,1.8-1.8,2.2c-3.8,1.9-8.4,1.9-12.2,0l-6.3-3.2c-3.9-2-8.8-0.4-10.8,3.5c-2,3.9-0.4,8.8,3.5,10.8c0,0,0.1,0,0.1,0.1
          l6.3,3.2c1.7,0.8,3.4,1.5,5.3,2V325h16v-11.7c1.8-0.5,3.6-1.2,5.3-2c9.6-4.8,13.5-16.5,8.7-26.1
          C123.4,280.2,118.8,276.4,113.3,275.1z"></path>
      <path d="M304,200h88c4.4,0,8-3.6,8-8v-40c0-4.4-3.6-8-8-8h-88c-4.4,0-8,3.6-8,8v40C296,196.4,299.6,200,304,200z M384,184h-72v-24
          h72V184z"></path>
      <path d="M304,264h32c4.4,0,8-3.6,8-8v-32c0-4.4-3.6-8-8-8h-32c-4.4,0-8,3.6-8,8v32C296,260.4,299.6,264,304,264z M328,248h-16v-16
          h16V248z"></path>
      <path d="M336,320c4.4,0,8-3.6,8-8v-32c0-4.4-3.6-8-8-8h-32c-4.4,0-8,3.6-8,8v32c0,4.4,3.6,8,8,8H336z M328,304h-16v-16h16V304z"></path>
      <path d="M392,272h-32c-4.4,0-8,3.6-8,8v32c0,4.4,3.6,8,8,8h32c4.4,0,8-3.6,8-8v-32C400,275.6,396.4,272,392,272z M384,304h-16v-16
          h16V304z"></path>
      <path d="M392,216h-32c-4.4,0-8,3.6-8,8v32c0,4.4,3.6,8,8,8h32c4.4,0,8-3.6,8-8v-32C400,219.6,396.4,216,392,216z M384,248h-16v-16
          h16V248z"></path>
      </g>
  </g>
</svg>