<svg version="1.1" id="computer-service" xmlnsSvgjs="http://svgjs.com/svgjs" xmlns="http://www.w3.org/2000/svg" xmlns:xlink="http://www.w3.org/1999/xlink" x="0px" y="0px" xml:space="preserve" viewBox="0 0 496 496">
        <g>
            <path d="M464,32H336.3l-14.8-14.8c-3.2-3-8.1-3-11.3,0l-10.5,10.5c-3.8-1.8-7.7-3.4-11.7-4.8V8c0-4.4-3.6-8-8-8h-64
            c-4.4,0-8,3.6-8,8v14.9c-4,1.4-7.9,3-11.7,4.8l-10.5-10.5c-3.1-3.1-8.2-3.1-11.3,0L159.7,32H32C14.3,32,0,46.3,0,64v304
            c0,17.7,14.3,32,32,32h144v32h-8c-17.7,0-32,14.3-32,32v24c0,4.4,3.6,8,8,8h208c4.4,0,8-3.6,8-8v-24c0-17.7-14.3-32-32-32h-8v-32
            h144c17.7,0,32-14.3,32-32V64C496,46.3,481.7,32,464,32z M180.1,34.2l8.9,9c2.5,2.5,6.4,3.1,9.5,1.4c6.3-3.4,12.9-6.1,19.7-8.1
            c3.4-1,5.7-4.1,5.7-7.7V16h48v12.7c0,3.5,2.3,6.7,5.7,7.7c6.8,2,13.5,4.7,19.7,8.1c3.1,1.7,7,1.1,9.5-1.4l8.9-9l33.9,34l-8.9,8.9
            c-2.5,2.5-3.1,6.4-1.4,9.5c3.4,6.3,6.1,12.9,8.1,19.8c1,3.4,4.1,5.7,7.7,5.7H368v48h-12.7c-3.5,0-6.7,2.3-7.7,5.7
            c-2,6.8-4.7,13.5-8.1,19.8c-1.7,3.1-1.1,7,1.4,9.5l8.9,8.9l-33.9,34l-8.9-9c-2.5-2.5-6.4-3.1-9.5-1.4c-6.3,3.4-12.9,6.1-19.7,8.1
            c-3.4,1-5.7,4.1-5.7,7.7V256h-48v-12.7c0-3.5-2.3-6.7-5.7-7.7c-6.8-2-13.5-4.7-19.7-8.1c-3.1-1.7-7-1.1-9.5,1.4l-8.9,9l-33.9-34
            l8.9-8.9c2.5-2.5,3.1-6.4,1.4-9.5c-3.4-6.3-6.1-12.9-8.1-19.8c-1-3.4-4.1-5.7-7.7-5.7H128v-48h12.7c3.5,0,6.7-2.3,7.7-5.7
            c2-6.8,4.7-13.5,8.1-19.8c1.7-3.1,1.1-7-1.4-9.5l-8.9-8.9L180.1,34.2z M344,464v16H152v-16c0-8.8,7.2-16,16-16h160
            C336.8,448,344,455.2,344,464z M304,432H192v-32h112V432z M480,368c0,8.8-7.2,16-16,16H32c-8.8,0-16-7.2-16-16V64
            c0-8.8,7.2-16,16-16h111.7l-14.5,14.5c-3.1,3.1-3.1,8.2,0,11.3l10.5,10.5c-1.8,3.8-3.4,7.7-4.8,11.7H120c-4.4,0-8,3.6-8,8v64
            c0,4.4,3.6,8,8,8h14.9c1.4,4,3,7.9,4.8,11.7l-10.5,10.5c-3.1,3.1-3.1,8.2,0,11.3l45.3,45.3c3.2,3,8.1,3,11.3,0l10.5-10.5
            c3.8,1.8,7.7,3.4,11.7,4.8V264c0,4.4,3.6,8,8,8h64c4.4,0,8-3.6,8-8v-14.9c4-1.4,7.9-3,11.7-4.8l10.5,10.5c3.1,3.1,8.2,3.1,11.3,0
            l45.3-45.3c3.1-3.1,3.1-8.2,0-11.3l-10.5-10.5c1.8-3.8,3.4-7.7,4.8-11.7H376c4.4,0,8-3.6,8-8v-64c0-4.4-3.6-8-8-8h-14.9
            c-1.4-4-3-7.9-4.8-11.7l10.5-10.5c3.1-3.1,3.1-8.2,0-11.3L352.3,48H464c8.8,0,16,7.2,16,16V368z"></path>
            <path d="M456,64h-72v16h64v240H48V80h64V64H40c-4.4,0-8,3.6-8,8v256c0,4.4,3.6,8,8,8h416c4.4,0,8-3.6,8-8V72
            C464,67.6,460.4,64,456,64z"></path>
            <rect x="448" y="352" width="16" height="16"></rect>
            <rect x="416" y="352" width="16" height="16"></rect>
            <rect x="384" y="352" width="16" height="16"></rect>
            <path d="M248,224c48.6,0,88-39.4,88-88s-39.4-88-88-88s-88,39.4-88,88C160.1,184.6,199.4,223.9,248,224z M232,206.1v-28.8
            c0-2.8-1.5-5.4-3.9-6.9c-19.8-12.2-26.1-38.1-13.9-58c2.6-4.2,5.9-7.9,9.8-11V136c0,2.1,0.8,4.2,2.3,5.7l16,16
            c3.1,3.1,8.2,3.1,11.3,0l16-16c1.5-1.5,2.3-3.5,2.3-5.7v-34.5c18.3,14.5,21.3,41,6.9,59.2c-3.1,3.9-6.8,7.2-11,9.8
            c-2.4,1.4-3.9,4.1-3.9,6.9v28.8C253.5,208.6,242.5,208.6,232,206.1L232,206.1z M248,64c39.7,0,72,32.1,72,71.9
            c0,27.4-15.5,52.4-40,64.5v-18.8c15.1-10.9,24-28.5,24-47.1c0.1-24-14.7-45.6-37.3-54.1c-4.2-1.5-8.7,0.6-10.3,4.8
            c-0.3,0.9-0.5,1.8-0.5,2.7v44.7l-8,8l-8-8V88c0-4.4-3.6-8-8-8c-0.9,0-1.9,0.2-2.7,0.5c-22.5,8.5-37.4,30-37.3,54.1
            c0,18.6,8.9,36.2,24,47.1v18.8c-35.6-17.6-50.2-60.8-32.5-96.4C195.6,79.5,220.6,64,248,64z"></path>
            <rect x="184" y="288" width="96" height="16"></rect>
            <rect x="296" y="288" width="16" height="16"></rect>
        </g>
        </svg>