<svg version="1.1" id="it-education" xmlnsSvgjs="http://svgjs.com/svgjs" xmlns="http://www.w3.org/2000/svg" xmlns:xlink="http://www.w3.org/1999/xlink" x="0px" y="0px" xml:space="preserve" viewBox="0 0 480 480">
        <g>
            <g id="outline">
            <path d="M450,48h-34.6C411,17.4,382.6-3.8,352,0.6c-24.6,3.5-43.9,22.9-47.4,47.4H30C13.4,48,0,61.4,0,78v284
                c0,16.6,13.4,30,30,30h161.4c-1.7,10.4-6.5,19.9-14,27.3L164.7,432H160c-8.8,0-16,7.2-16,16v24c0,4.4,3.6,8,8,8h176
                c4.4,0,8-3.6,8-8v-24c0-8.8-7.2-16-16-16h-4.7l-12.7-12.7c-7.4-7.4-12.3-17-14-27.3H450c16.6,0,30-13.4,30-30V78
                C480,61.4,466.6,48,450,48z M399.2,48h-13.3c-0.8-7-2.6-13.9-5.3-20.4l-3.3-7.7C388.5,25.3,396.7,35.7,399.2,48z M380.6,84.4
                c2.8-6.5,4.6-13.3,5.3-20.4h13.3c-2.5,12.3-10.7,22.7-22,28.1L380.6,84.4z M354.2,34l5.8-13.6l5.8,13.6c1.9,4.5,3.2,9.2,3.9,14.1
                h-19.5C350.9,43.2,352.2,38.4,354.2,34L354.2,34z M369.8,64c-0.7,4.8-2,9.6-3.9,14.1L360,91.7l-5.8-13.6
                c-1.9-4.5-3.2-9.2-3.9-14.1H369.8z M342.8,19.9l-3.3,7.7c-2.8,6.5-4.6,13.3-5.3,20.4h-13.3C323.3,35.7,331.5,25.3,342.8,19.9z
                M334.1,64c0.8,7,2.6,13.9,5.3,20.4l3.3,7.7c-11.3-5.4-19.4-15.8-22-28.1H334.1z M320,448v16H160l0-16H320z M291.3,430.6l1.4,1.4
                H187.3l1.4-1.4c10.4-10.4,17.1-24,18.8-38.6h65C274.2,406.6,280.9,420.2,291.3,430.6z M464,362c0,7.7-6.3,14-14,14H30
                c-7.7,0-14-6.3-14-14v-18h448V362z M464,328H16V78c0-7.7,6.3-14,14-14h274.6c3.6,24.6,22.9,43.8,47.4,47.4V128h16v-16.6
                c24.6-3.6,43.8-22.9,47.4-47.4H450c7.7,0,14,6.3,14,14V328z"></path>
            <path d="M320,232h-43c1-1.1,2-2.2,2.9-3.4l16.2-22.7c10.6-14.7,12.9-33.8,6.1-50.7l-0.2-0.5c-7.1-17.6-27.1-26.2-44.7-19.2
                c-2.5,1-4.9,2.3-7,3.8c3.1-11.8,9.3-22.6,18-31.3l1.4-1.4c3.1-3.1,3.2-8.2,0.1-11.3c-3.1-3.1-8.2-3.2-11.3-0.1c0,0,0,0-0.1,0.1
                l-1.4,1.4c-2.6,2.6-5,5.3-7.2,8.2l-2.2-5.5c-5.3-13-18.5-20.8-32.4-19.2l-23,2.7c-4.4,0.5-7.5,4.5-7,8.9c0.1,1.2,0.5,2.3,1.2,3.3
                l13.2,20.9c5.7,9,15.6,14.5,26.2,14.5c1.7,0,3.4-0.1,5.1-0.4l5.9-1c-1.5,4.3-2.6,8.7-3.4,13.2c-13.9-12.9-35.7-12.2-48.6,1.7
                c-2.9,3.1-5.2,6.7-6.8,10.7l-0.2,0.5c-6.8,16.8-4.5,35.9,6.1,50.7l16.2,22.7c0.9,1.2,1.8,2.4,2.9,3.4h-27c-22.1,0-40,17.9-40,40
                s17.9,40,40,40h144c4.4,0,8-3.6,8-8v-64C328,235.6,324.4,232,320,232z M228.2,114.3c-6,1-12-1.7-15.2-6.8l-6.4-10.1l10.4-1.2
                c6.7-0.8,13.2,3,15.7,9.3l3.1,7.6L228.2,114.3z M196.9,196.5c-7.4-10.3-9-23.7-4.3-35.4l0.2-0.5c3.8-9.4,14.5-14,23.9-10.2
                c3.5,1.4,6.4,3.8,8.5,6.9c5.5,8.2,16.5,10.4,24.7,4.9c2-1.3,3.6-3,4.9-4.9c5.6-8.5,17.1-10.7,25.5-5.1c3.1,2.1,5.5,5,6.9,8.5
                l0.2,0.5c4.7,11.8,3.1,25.1-4.3,35.4l-16.2,22.7c-3.5,5-9.9,7.1-15.7,5.1l-8.6-2.9c-1.6-0.5-3.4-0.5-5.1,0l-8.6,2.9
                c-5.8,2-12.2-0.1-15.7-5.1L196.9,196.5z M312,264H176c-4.4,0-8,3.6-8,8s3.6,8,8,8h136v16H176c-13.3,0-24-10.7-24-24s10.7-24,24-24
                h136V264z"></path>
            <rect x="352" y="144" width="16" height="16"></rect>
            <path d="M352,192h-32v16h40c4.4,0,8-3.6,8-8v-24h-16V192z"></path>
            </g>
        </g>
        </svg>